# xmcd
#
# Track frame offsets: 
#        150
#        23255
#        44775
#        62910
#        89652
#        108868
#        135023
#        151420
#        176860
#        201838
#        218410
#
# Disc length: 3251 seconds
#
# Revision: 3
# Processed by: cddbd v1.5.2PL0 Copyright (c) Steve Scherf et al.
# Submitted via: ExactAudioCopy v1.0b4
#
DISCID=8f0cb10b
DTITLE=The Black Crowes - Amorica [2013 reissue]
DYEAR=1994
DGENRE=Rock
TTITLE0=Gone
TTITLE1=A conspiracy
TTITLE2=High head blues
TTITLE3=Cursed diamond
TTITLE4=Nonfiction
TTITLE5=She gave good sunflower
TTITLE6=P. 25 London
TTITLE7=Balad in urgency
TTITLE8=Wiser time
TTITLE9=Downtown money waster
TTITLE10=Descending
EXTD=YEAR: 1994
EXTT0=
EXTT1=
EXTT2=
EXTT3=
EXTT4=
EXTT5=
EXTT6=
EXTT7=
EXTT8=
EXTT9=
EXTT10=
PLAYORDER=
